<?xml version="1.0" encoding="UTF-8"?>
<svg viewBox="0 0 900 600" xmlns="http://www.w3.org/2000/svg" role="img" font-family="Segoe UI, Helvetica, Arial, sans-serif">
  <title>Architecture Homelab avec logos</title>
  <desc>Architecture en couches : utilisateurs vers Caddy, puis Keycloak (SSO), access-approve et Jellyfin, dans une VM Ubuntu Docker sur Proxmox, GPU NVIDIA en passthrough vers Jellyfin.</desc>
  <defs>
    <marker id="an" markerWidth="10" markerHeight="10" refX="7.5" refY="3" orient="auto"><path d="M0,0 L7,3 L0,6 Z" fill="#5A6678"/></marker>
    <marker id="ag" markerWidth="10" markerHeight="10" refX="7.5" refY="3" orient="auto"><path d="M0,0 L7,3 L0,6 Z" fill="#76B900"/></marker>
    <marker id="av" markerWidth="11" markerHeight="11" refX="7.5" refY="3" orient="auto"><path d="M0,0 L7,3 L0,6 Z" fill="#B9A6FB"/></marker>
  </defs>

  <rect x="0" y="0" width="900" height="600" rx="18" fill="#0E1015"/>
  <rect x="0.5" y="0.5" width="899" height="599" rx="18" fill="none" stroke="#23272F"/>

  <text x="450" y="40" text-anchor="middle" fill="#E8C87A" font-size="15" font-weight="600" letter-spacing="3">Homelab — ARCHITECTURE</text>
  <text x="450" y="61" text-anchor="middle" fill="#8B94A3" font-size="12">Une porte d'entrée · un compte · une VM Docker sur Proxmox</text>

  <g transform="translate(294,76)">
    <rect width="160" height="46" rx="10" fill="#171A21" stroke="#39414F"/>
    <circle cx="26" cy="19" r="4.5" fill="none" stroke="#E8C87A" stroke-width="1.6"/>
    <path d="M19 32 a7 7 0 0 1 14 0" fill="none" stroke="#E8C87A" stroke-width="1.6"/>
    <text x="46" y="21" fill="#E9ECF1" font-size="13" font-weight="600">Utilisateurs</text>
    <text x="46" y="36" fill="#9AA2AF" font-size="10.5">navigateur · TV · mobile</text>
  </g>

  <rect x="40" y="126" width="820" height="452" rx="16" fill="#101319" stroke="#39414F"/>
  <rect x="56" y="137" width="246" height="23" rx="6" fill="#1A1E26"/>
  <g transform="translate(64,142) scale(0.58)"><path fill="#E8821E" d="M4.928 1.825c-1.09.553-1.09.64-.07 1.78 5.655 6.295 7.004 7.782 7.107 7.782.139.017 7.971-8.542 8.058-8.801.034-.07-.208-.312-.519-.536-.415-.312-.864-.433-1.712-.467-1.59-.104-2.144.242-4.115 2.455-.899 1.003-1.66 1.833-1.66 1.833-.017 0-.76-.813-1.642-1.798S8.473 2.1 8.127 1.91c-.796-.45-2.421-.484-3.2-.086zM1.297 4.367C.45 4.695 0 5.007 0 5.248c0 .121 1.331 1.678 2.94 3.459 1.625 1.78 2.939 3.268 2.939 3.302 0 .035-1.331 1.522-2.94 3.303C1.314 17.11.017 18.683.035 18.822c.086.467 1.504 1.055 2.541 1.055 1.678-.018 2.058-.312 5.603-4.202 1.78-1.954 3.233-3.614 3.233-3.666 0-.069-1.435-1.694-3.199-3.63-2.3-2.508-3.423-3.632-3.96-3.874-.812-.398-2.126-.467-2.956-.138zm18.467.12c-.502.26-1.764 1.505-3.943 3.891-1.763 1.937-3.199 3.562-3.199 3.631 0 .07 1.453 1.712 3.234 3.666 3.544 3.89 3.925 4.184 5.602 4.202 1.038 0 2.455-.588 2.542-1.055.017-.156-1.28-1.712-2.905-3.493-1.608-1.78-2.94-3.285-2.94-3.32 0-.034 1.332-1.539 2.94-3.32C22.72 6.91 24.017 5.352 24 5.214c-.087-.45-1.366-.968-2.473-1.038-.795-.034-1.21.035-1.763.312zM7.954 16.973c-2.144 2.369-3.908 4.374-3.943 4.46-.034.07.208.312.52.537.414.311.864.432 1.711.467 1.574.103 2.161-.26 4.15-2.508.864-.968 1.608-1.78 1.625-1.78s.761.812 1.643 1.798c2.023 2.248 2.559 2.576 4.132 2.49.848-.035 1.297-.156 1.712-.467.311-.225.553-.467.519-.536-.087-.26-7.92-8.819-8.058-8.801-.069 0-1.867 1.954-4.011 4.34z"/></g>
  <text x="86" y="153" fill="#9AA2AF" font-size="11" font-weight="600" letter-spacing="1.4">PROXMOX VE · HYPERVISEUR</text>

  <rect x="64" y="176" width="624" height="386" rx="13" fill="#0F141B" stroke="#39414F" stroke-dasharray="5 5"/>
  <rect x="80" y="186" width="252" height="23" rx="6" fill="#1A1E26"/>
  <g transform="translate(88,190) scale(0.58)"><path fill="#E95420" d="M17.61.455a3.41 3.41 0 0 0-3.41 3.41 3.41 3.41 0 0 0 3.41 3.41 3.41 3.41 0 0 0 3.41-3.41 3.41 3.41 0 0 0-3.41-3.41zM12.92.8C8.923.777 5.137 2.941 3.148 6.451a4.5 4.5 0 0 1 .26-.007 4.92 4.92 0 0 1 2.585.737A8.316 8.316 0 0 1 12.688 3.6 4.944 4.944 0 0 1 13.723.834 11.008 11.008 0 0 0 12.92.8zm9.226 4.994a4.915 4.915 0 0 1-1.918 2.246 8.36 8.36 0 0 1-.273 8.303 4.89 4.89 0 0 1 1.632 2.54 11.156 11.156 0 0 0 .559-13.089zM3.41 7.932A3.41 3.41 0 0 0 0 11.342a3.41 3.41 0 0 0 3.41 3.409 3.41 3.41 0 0 0 3.41-3.41 3.41 3.41 0 0 0-3.41-3.41zm2.027 7.866a4.908 4.908 0 0 1-2.915.358 11.1 11.1 0 0 0 7.991 6.698 11.234 11.234 0 0 0 2.422.249 4.879 4.879 0 0 1-.999-2.85 8.484 8.484 0 0 1-.836-.136 8.304 8.304 0 0 1-5.663-4.32zm11.405.928a3.41 3.41 0 0 0-3.41 3.41 3.41 3.41 0 0 0 3.41 3.41 3.41 3.41 0 0 0 3.41-3.41 3.41 3.41 0 0 0-3.41-3.41z"/></g>
  <g transform="translate(106,190) scale(0.58)"><path fill="#2496ED" d="M13.983 11.078h2.119a.186.186 0 00.186-.185V9.006a.186.186 0 00-.186-.186h-2.119a.185.185 0 00-.185.185v1.888c0 .102.083.185.185.185m-2.954-5.43h2.118a.186.186 0 00.186-.186V3.574a.186.186 0 00-.186-.185h-2.118a.185.185 0 00-.185.185v1.888c0 .102.082.185.185.185m0 2.716h2.118a.187.187 0 00.186-.186V6.29a.186.186 0 00-.186-.185h-2.118a.185.185 0 00-.185.185v1.887c0 .102.082.185.185.186m-2.93 0h2.12a.186.186 0 00.184-.186V6.29a.185.185 0 00-.185-.185H8.1a.185.185 0 00-.185.185v1.887c0 .102.083.185.185.186m-2.964 0h2.119a.186.186 0 00.185-.186V6.29a.185.185 0 00-.185-.185H5.136a.186.186 0 00-.186.185v1.887c0 .102.084.185.186.186m5.893 2.715h2.118a.186.186 0 00.186-.185V9.006a.186.186 0 00-.186-.186h-2.118a.185.185 0 00-.185.185v1.888c0 .102.082.185.185.185m-2.93 0h2.12a.185.185 0 00.184-.185V9.006a.185.185 0 00-.184-.186h-2.12a.185.185 0 00-.184.185v1.888c0 .102.083.185.185.185m-2.964 0h2.119a.185.185 0 00.185-.185V9.006a.185.185 0 00-.184-.186h-2.12a.186.186 0 00-.186.186v1.887c0 .102.084.185.186.185m-2.92 0h2.12a.185.185 0 00.184-.185V9.006a.185.185 0 00-.184-.186h-2.12a.185.185 0 00-.184.185v1.888c0 .102.082.185.185.185M23.763 9.89c-.065-.051-.672-.51-1.954-.51-.338.001-.676.03-1.01.087-.248-1.7-1.653-2.53-1.716-2.566l-.344-.199-.226.327c-.284.438-.49.922-.612 1.43-.23.97-.09 1.882.403 2.661-.595.332-1.55.413-1.744.42H.751a.751.751 0 00-.75.748 11.376 11.376 0 00.692 4.062c.545 1.428 1.355 2.48 2.41 3.124 1.18.723 3.1 1.137 5.275 1.137.983.003 1.963-.086 2.93-.266a12.248 12.248 0 003.823-1.389c.98-.567 1.86-1.288 2.61-2.136 1.252-1.418 1.998-2.997 2.553-4.4h.221c1.372 0 2.215-.549 2.68-1.009.309-.293.55-.65.707-1.046l.098-.288Z"/></g>
  <text x="126" y="201" fill="#9AA2AF" font-size="11" font-weight="600" letter-spacing="1.2">VM UBUNTU 24.04 · DOCKER</text>

  <g transform="translate(238,214)">
    <rect width="280" height="68" rx="12" fill="#171A21" stroke="#2A2F3A"/>
    <rect x="16" y="17" width="34" height="34" rx="9" fill="#3FA9DC" fill-opacity="0.15"/>
    <g transform="translate(23,24) scale(0.79)"><path fill="#3FA9DC" d="M11.094.47c-.842 0-1.696.092-2.552.288a11.37 11.37 0 0 0-4.87 2.423 10.632 10.632 0 0 0-2.36 2.826A10.132 10.132 0 0 0 .305 8.582c-.398 1.62-.4 3.336-.043 5.048.085.405.183.809.31 1.212a11.85 11.85 0 0 0 1.662 3.729 3.273 3.273 0 0 0-.086.427 3.323 3.323 0 0 0 2.848 3.71 3.279 3.279 0 0 0 1.947-.346c1.045.51 2.17.864 3.339 1.04a11.66 11.66 0 0 0 4.285-.155 11.566 11.566 0 0 0 4.936-2.485 10.643 10.643 0 0 0 2.352-2.894 11.164 11.164 0 0 0 1.356-4.424 11.214 11.214 0 0 0-.498-4.335c.175-.077.338-.175.486-.293a.444.444 89.992 0 0 .001 0c.402-.322.693-.794.777-1.342a2.146 2.146 0 0 0-1.79-2.434 2.115 2.115 0 0 0-1.205.171c-.038-.043-.078-.086-.113-.13a11.693 11.693 0 0 0-3.476-2.93 13.348 13.348 0 0 0-1.76-.81 13.55 13.55 0 0 0-2.06-.613A12.121 12.121 0 0 0 11.093.47Zm.714.328c.345-.004.688.01 1.028.042a9.892 9.892 0 0 1 2.743.639c.984.39 1.89.958 2.707 1.632.803.662 1.502 1.45 2.091 2.328.026.039.048.08.07.12a2.12 2.12 0 0 0-.435 2.646c-.158.114-.97.692-1.634 1.183-.414.308-.733.557-.733.557l.581.68s.296-.276.665-.638c.572-.562 1.229-1.233 1.395-1.403a2.122 2.122 0 0 0 1.907.677 11.229 11.229 0 0 1-.013 4.046 11.41 11.41 0 0 1-1.475 3.897 12.343 12.343 0 0 1-2.079 2.587c-1.19 1.125-2.633 2.022-4.306 2.531a10.826 10.826 0 0 1-3.973.484 11.04 11.04 0 0 1-3.057-.652 3.304 3.304 0 0 0 1.417-2.294 3.275 3.275 0 0 0-.294-1.842c.18-.162.403-.363.656-.6 1.015-.955 2.353-2.303 2.353-2.303l-.47-.599s-1.63.972-2.801 1.728c-.307.198-.573.378-.777.517a3.273 3.273 0 0 0-1.516-.611c-1.507-.198-2.927.672-3.487 2.017a10.323 10.323 0 0 1-.695-1.078A10.92 10.92 0 0 1 .728 14.8a10.35 10.35 0 0 1-.2-1.212c-.164-1.653.103-3.258.629-4.754a12.95 12.95 0 0 1 1.087-2.288c.57-.968 1.248-1.872 2.069-2.656A11.013 11.013 0 0 1 11.808.797Zm-.147 3.257a3.838 3.838 0 0 0-3.82 3.82v2.36h-.94c-.751 0-1.377.625-1.377 1.377v3.8h1.46v-3.718h9.354v6.264H10.02v1.46h6.4c.751 0 1.377-.625 1.377-1.377v-6.43c0-.751-.626-1.377-1.377-1.377h-.94v-2.36a3.838 3.838 0 0 0-3.82-3.819zm0 1.46a2.371 2.371 0 0 1 2.36 2.36v2.36H9.3v-2.36a2.372 2.372 0 0 1 2.36-2.36zm10.141.392a1.253 1.253 0 0 1 1.296 1.434c-.049.319-.217.59-.453.78-.266.213-.61.318-.968.264a1.253 1.253 0 0 1-1.045-1.42 1.255 1.255 0 0 1 1.17-1.058zM5.384 17.425a2.02 2.02 0 0 1 1.917 1.298c.116.3.159.628.114.967a2.015 2.015 0 0 1-2.249 1.728 2.016 2.016 0 0 1-1.727-2.25 2.017 2.017 0 0 1 1.945-1.743z"/></g>
    <text x="62" y="31" fill="#E9ECF1" font-size="15" font-weight="600">Caddy</text>
    <text x="62" y="49" fill="#9AA2AF" font-size="11.5">reverse proxy · TLS · point d'entrée</text>
  </g>

  <g transform="translate(96,312)">
    <rect width="168" height="92" rx="12" fill="#171A21" stroke="#2A2F3A"/>
    <rect x="16" y="29" width="34" height="34" rx="9" fill="#A78BFA" fill-opacity="0.15"/>
    <g transform="translate(23,36) scale(0.79)"><path fill="#A78BFA" d="m18.742 1.182-12.493.002C4.155 4.784 2.079 8.393 0 12.002c2.071 3.612 4.162 7.214 6.252 10.816l12.49-.004 3.089-5.404h2.158v-.002H24L23.996 6.59h-2.168zM8.327 4.792h2.081l1.04 1.8-3.12 5.413 3.117 5.403-1.035 1.81H8.327a2047.566 2047.566 0 0 0-4.168-7.204C5.547 9.606 6.937 7.2 8.327 4.792Zm6.241 0 2.086.003c1.393 2.405 2.78 4.813 4.166 7.222l-4.167 7.2h-2.08c-.382-.562-1.038-1.808-1.038-1.808l3.123-5.405-3.124-5.413z"/></g>
    <text x="62" y="44" fill="#E9ECF1" font-size="14.5" font-weight="600">Keycloak</text>
    <text x="62" y="62" fill="#9AA2AF" font-size="11">SSO · OpenID</text>
  </g>

  <g transform="translate(284,312)">
    <rect width="168" height="92" rx="12" fill="#171A21" stroke="#2A2F3A"/>
    <rect x="16" y="29" width="34" height="34" rx="9" fill="#5DD39E" fill-opacity="0.15"/>
    <path d="M26 46 l5 5 l9 -11" fill="none" stroke="#5DD39E" stroke-width="2.2" stroke-linecap="round" stroke-linejoin="round"/>
    <text x="62" y="44" fill="#E9ECF1" font-size="14" font-weight="600">access-approve</text>
    <text x="62" y="62" fill="#9AA2AF" font-size="11">validation inscriptions</text>
  </g>

  <g transform="translate(472,312)">
    <rect width="168" height="92" rx="12" fill="#171A21" stroke="#2A2F3A"/>
    <rect x="16" y="29" width="34" height="34" rx="9" fill="#A472D6" fill-opacity="0.15"/>
    <g transform="translate(23,36) scale(0.79)"><path fill="#A472D6" d="M12 .002C8.826.002-1.398 18.537.16 21.666c1.56 3.129 22.14 3.094 23.682 0C25.384 18.573 15.177 0 12 0zm7.76 18.949c-1.008 2.028-14.493 2.05-15.514 0C3.224 16.9 9.92 4.755 12.003 4.755c2.081 0 8.77 12.166 7.759 14.196zM12 9.198c-1.054 0-4.446 6.15-3.93 7.189.518 1.04 7.348 1.027 7.86 0 .511-1.027-2.874-7.19-3.93-7.19z"/></g>
    <text x="62" y="44" fill="#E9ECF1" font-size="14.5" font-weight="600">Jellyfin</text>
    <text x="62" y="62" fill="#9AA2AF" font-size="11">accès rôle « media »</text>
  </g>

  <g transform="translate(712,312)">
    <rect width="126" height="92" rx="12" fill="#171A21" stroke="#2A2F3A"/>
    <rect x="16" y="14" width="34" height="34" rx="9" fill="#76B900" fill-opacity="0.15"/>
    <g transform="translate(23,21) scale(0.79)"><path fill="#76B900" d="M8.948 8.798v-1.43a6.7 6.7 0 0 1 .424-.018c3.922-.124 6.493 3.374 6.493 3.374s-2.774 3.851-5.75 3.851c-.398 0-.787-.062-1.158-.185v-4.346c1.528.185 1.837.857 2.747 2.385l2.04-1.714s-1.492-1.952-4-1.952a6.016 6.016 0 0 0-.796.035m0-4.735v2.138l.424-.027c5.45-.185 9.01 4.47 9.01 4.47s-4.08 4.964-8.33 4.964c-.37 0-.733-.035-1.095-.097v1.325c.3.035.61.062.91.062 3.957 0 6.82-2.023 9.593-4.408.459.371 2.34 1.263 2.73 1.652-2.633 2.208-8.772 3.984-12.253 3.984-.335 0-.653-.018-.971-.053v1.864H24V4.063zm0 10.326v1.131c-3.657-.654-4.673-4.46-4.673-4.46s1.758-1.944 4.673-2.262v1.237H8.94c-1.528-.186-2.73 1.245-2.73 1.245s.68 2.412 2.739 3.11M2.456 10.9s2.164-3.197 6.5-3.533V6.201C4.153 6.59 0 10.653 0 10.653s2.35 6.802 8.948 7.42v-1.237c-4.84-.6-6.492-5.936-6.492-5.936z"/></g>
    <text x="16" y="64" fill="#E9ECF1" font-size="13" font-weight="600">NVIDIA</text>
    <text x="16" y="80" fill="#9AA2AF" font-size="10">Quadro P1000</text>
  </g>

  <g transform="translate(96,436)">
    <rect width="168" height="78" rx="12" fill="#13161D" stroke="#262B34"/>
    <text x="16" y="24" fill="#E9ECF1" font-size="13" font-weight="600">Supervision</text>
    <g transform="translate(16,34) scale(0.83)"><path fill="#E6522C" d="M12 0C5.373 0 0 5.372 0 12c0 6.627 5.373 12 12 12s12-5.373 12-12c0-6.628-5.373-12-12-12zm0 22.46c-1.885 0-3.414-1.26-3.414-2.814h6.828c0 1.553-1.528 2.813-3.414 2.813zm5.64-3.745H6.36v-2.046h11.28v2.046zm-.04-3.098H6.391c-.037-.043-.075-.086-.111-.13-1.155-1.401-1.427-2.133-1.69-2.879-.005-.025 1.4.287 2.395.511 0 0 .513.119 1.262.255-.72-.843-1.147-1.915-1.147-3.01 0-2.406 1.845-4.508 1.18-6.207.648.053 1.34 1.367 1.387 3.422.689-.951.977-2.69.977-3.755 0-1.103.727-2.385 1.454-2.429-.648 1.069.168 1.984.894 4.256.272.854.237 2.29.447 3.201.07-1.892.395-4.652 1.595-5.605-.529 1.2.079 2.702.494 3.424.671 1.164 1.078 2.047 1.078 3.716a4.642 4.642 0 01-1.11 2.996c.792-.149 1.34-.283 1.34-.283l2.573-.502s-.374 1.538-1.81 3.019z"/></g>
    <g transform="translate(46,34) scale(0.83)"><path fill="#F2922E" d="M23.02 10.59a8.578 8.578 0 0 0-.862-3.034 8.911 8.911 0 0 0-1.789-2.445c.337-1.342-.413-2.505-.413-2.505-1.292-.08-2.113.4-2.416.62-.052-.02-.102-.044-.154-.064-.22-.089-.446-.172-.677-.247-.231-.073-.47-.14-.711-.197a9.867 9.867 0 0 0-.875-.161C14.557.753 12.94 0 12.94 0c-1.804 1.145-2.147 2.744-2.147 2.744l-.018.093c-.098.029-.2.057-.298.088-.138.042-.275.094-.413.143-.138.055-.275.107-.41.166a8.869 8.869 0 0 0-1.557.87l-.063-.029c-2.497-.955-4.716.195-4.716.195-.203 2.658.996 4.33 1.235 4.636a11.608 11.608 0 0 0-.607 2.635C1.636 12.677.953 15.014.953 15.014c1.926 2.214 4.171 2.351 4.171 2.351.003-.002.006-.002.006-.005.285.509.615.994.986 1.446.156.19.32.371.488.548-.704 2.009.099 3.68.099 3.68 2.144.08 3.553-.937 3.849-1.173a9.784 9.784 0 0 0 3.164.501h.08l.055-.003.107-.002.103-.005.003.002c1.01 1.44 2.788 1.646 2.788 1.646 1.264-1.332 1.337-2.653 1.337-2.94v-.058c0-.02-.003-.039-.003-.06.265-.187.52-.387.758-.6a7.875 7.875 0 0 0 1.415-1.7c1.43.083 2.437-.885 2.437-.885-.236-1.49-1.085-2.216-1.264-2.354l-.018-.013-.016-.013a.217.217 0 0 1-.031-.02c.008-.092.016-.18.02-.27.011-.162.016-.323.016-.48v-.253l-.005-.098-.008-.135a1.891 1.891 0 0 0-.01-.13c-.003-.042-.008-.083-.013-.125l-.016-.124-.018-.122a6.215 6.215 0 0 0-2.032-3.73 6.015 6.015 0 0 0-3.222-1.46 6.292 6.292 0 0 0-.85-.048l-.107.002h-.063l-.044.003-.104.008a4.777 4.777 0 0 0-3.335 1.695c-.332.4-.592.84-.768 1.297a4.594 4.594 0 0 0-.312 1.817l.003.091c.005.055.007.11.013.164a3.615 3.615 0 0 0 .698 1.82 3.53 3.53 0 0 0 1.827 1.282c.33.098.66.14.971.137.039 0 .078 0 .114-.002l.063-.003c.02 0 .041-.003.062-.003.034-.002.065-.007.099-.01.007 0 .018-.003.028-.003l.031-.005.06-.008a1.18 1.18 0 0 0 .112-.02c.036-.008.072-.013.109-.024a2.634 2.634 0 0 0 .914-.415c.028-.02.056-.041.085-.065a.248.248 0 0 0 .039-.35.244.244 0 0 0-.309-.06l-.078.042c-.09.044-.184.083-.283.116a2.476 2.476 0 0 1-.475.096c-.028.003-.054.006-.083.006l-.083.002c-.026 0-.054 0-.08-.002l-.102-.006h-.012l-.024.006c-.016-.003-.031-.003-.044-.006-.031-.002-.06-.007-.091-.01a2.59 2.59 0 0 1-.724-.213 2.557 2.557 0 0 1-.667-.438 2.52 2.52 0 0 1-.805-1.475 2.306 2.306 0 0 1-.029-.444l.006-.122v-.023l.002-.031c.003-.021.003-.04.005-.06a3.163 3.163 0 0 1 1.352-2.29 3.12 3.12 0 0 1 .937-.43 2.946 2.946 0 0 1 .776-.101h.06l.07.002.045.003h.026l.07.005a4.041 4.041 0 0 1 1.635.49 3.94 3.94 0 0 1 1.602 1.662 3.77 3.77 0 0 1 .397 1.414l.005.076.003.075c.002.026.002.05.002.075 0 .024.003.052 0 .07v.065l-.002.073-.008.174a6.195 6.195 0 0 1-.08.639 5.1 5.1 0 0 1-.267.927 5.31 5.31 0 0 1-.624 1.13 5.052 5.052 0 0 1-3.237 2.014 4.82 4.82 0 0 1-.649.066l-.039.003h-.287a6.607 6.607 0 0 1-1.716-.265 6.776 6.776 0 0 1-3.4-2.274 6.75 6.75 0 0 1-.746-1.15 6.616 6.616 0 0 1-.714-2.596l-.005-.083-.002-.02v-.056l-.003-.073v-.096l-.003-.104v-.07l.003-.163c.008-.22.026-.45.054-.678a8.707 8.707 0 0 1 .28-1.355c.128-.444.286-.872.473-1.277a7.04 7.04 0 0 1 1.456-2.1 5.925 5.925 0 0 1 .953-.763c.169-.111.343-.213.524-.306.089-.05.182-.091.273-.135.047-.02.093-.042.138-.062a7.177 7.177 0 0 1 .714-.267l.145-.045c.049-.015.098-.026.148-.041.098-.029.197-.052.296-.076.049-.013.1-.02.15-.033l.15-.032.151-.028.076-.013.075-.01.153-.024c.057-.01.114-.013.171-.023l.169-.021c.036-.003.073-.008.106-.01l.073-.008.036-.003.042-.002c.057-.003.114-.008.171-.01l.086-.006h.023l.037-.003.145-.007a7.999 7.999 0 0 1 1.708.125 7.917 7.917 0 0 1 2.048.68 8.253 8.253 0 0 1 1.672 1.09l.09.077.089.078c.06.052.114.107.171.159.057.052.112.106.166.16.052.055.107.107.159.164a8.671 8.671 0 0 1 1.41 1.978c.012.026.028.052.04.078l.04.078.075.156c.023.051.05.1.07.153l.065.15a8.848 8.848 0 0 1 .45 1.34.19.19 0 0 0 .201.142.186.186 0 0 0 .172-.184c.01-.246.002-.532-.024-.856z"/></g>
    <text x="16" y="68" fill="#9AA2AF" font-size="10.5">Prometheus · Grafana</text>
  </g>

  <g transform="translate(284,436)">
    <rect width="356" height="78" rx="12" fill="#13161D" stroke="#262B34"/>
    <text x="16" y="24" fill="#E9ECF1" font-size="13" font-weight="600">Acquisition</text>
    <g transform="translate(16,33) scale(0.83)"><path fill="#4FC3F7" d="M21.212 4.282c1.851 2.204 2.777 4.776 2.777 7.718 0 2.848-.867 5.344-2.602 7.489a934.355 934.355 0 0 1-2.101-2.095c-1.477-1.477-1.792-3.293-1.792-5.278 0-2.224.127-3.486 1.577-4.935l2.478-2.478a13.209 13.209 0 0 0-.337-.421Zm-17.7 16.193C1.708 18.678.6 16.59.188 14.213A11.84 11.84 0 0 1 .011 12c0-.28.006-.548.017-.802 0-.026.007-.052.022-.078.153-2.601 1.076-4.889 2.767-6.865-.108.127-.214.256-.316.387 0 0 1.351 1.346 2.329 2.323 1.408 1.409 1.726 3.215 1.726 5.151 0 1.985-.249 3.762-1.781 5.295-1.035 1.035-2.119 2.124-2.119 2.124.112.136.229.271.349.404.029-.027 1.297-1.348 2.123-2.175 1.638-1.637 1.928-3.528 1.928-5.648 0-2.072-.365-3.997-1.873-5.504a620.045 620.045 0 0 0-2.366-2.357c.168-.196.342-.388.523-.576l3.117 3.106-.194.195 1.903 1.898.547-.549L6.81 6.432l-.196.196L3.495 3.52c.01-.009.436-.416.643-.597.009.011 2.28 2.283 2.28 2.283 1.538 1.537 3.5 1.955 5.621 1.955 2.18 0 4.134-.442 5.731-2.038.907-.908 2.153-2.149 2.162-2.16.17.151.491.461.56.528l.013.013-3.111 3.028-.001.002-.197-.194-1.876 1.903.552.543 1.875-1.903-.197-.194 3.109-3.026c.193.203.377.41.553.619-.03.025-2.495 2.546-2.495 2.546-1.556 1.556-1.723 2.9-1.723 5.288 0 2.121.361 4.054 1.939 5.632a576.91 576.91 0 0 0 2.133 2.124c-.183.208-.599.645-.613.66l-3.066-3.174.195-.196-1.995-1.986-.546.549 1.995 1.986.195-.196 3.065 3.172c-.021.019-.385.362-.552.506-.01-.013-1.974-1.978-1.974-1.978-1.842-1.842-3.299-2.039-5.731-2.039-2.338 0-3.92.239-5.632 1.95-.944.944-2.078 2.085-2.089 2.099-.275-.23-.649-.594-.649-.594l3.019-3.024.199.192 1.854-1.925-.558-.538-1.854 1.926.199.191-3.016 3.022ZM12 8.672A3.33 3.33 0 0 0 8.672 12 3.33 3.33 0 0 0 12 15.328 3.33 3.33 0 0 0 15.328 12 3.33 3.33 0 0 0 12 8.672ZM4.52 2.6C6.665.867 9.162 0 12.011 0c2.88 0 5.394.88 7.541 2.639 0 0-1.215 1.209-2.136 2.13-1.496 1.496-3.334 1.892-5.377 1.892-1.985 0-3.829-.37-5.267-1.809L4.52 2.6Zm14.837 18.909a9.507 9.507 0 0 1-.342.256C16.994 23.255 14.659 24 12.011 24c-2.652 0-4.983-.745-6.993-2.235-.104-.074-.208-.15-.31-.227 0 0 1.096-1.101 2.053-2.058 1.602-1.602 3.09-1.804 5.278-1.804 2.28 0 3.651.166 5.377 1.892l1.941 1.941Z"/></g>
    <g transform="translate(50,33) scale(0.83)"><path fill="#FFC230" d="M5.274 0C3.189.039 1.19 1.547 1.19 4.705l.184 14.518c0 1.47 1.103 2.205 2.573 2.021L3.764 3.786c0-1.654.919-1.838 2.022-1.103l14.7 8.27c1.103.734 1.655 1.47 1.838 2.756.92-1.654.552-4.043-1.286-5.33L7.991.846A4.559 4.559 0 0 0 5.274.001zm1.982 6.91-.184 10.107 9.004-5.146Zm13.598 6.064-15.068 8.82c-.92.552-2.022.736-3.124.368.918 1.47 3.307 2.389 5.145 1.47l12.68-7.35c1.102-.736 1.286-2.022.367-3.308z"/></g>
    <g transform="translate(84,33) scale(0.83)"><path fill="#4A9FE0" d="M11.911 23.994c-1.31 0-2.605-.232-3.831-.705-3.4-1.024-6.2-3.865-7.433-7.58-1.23-3.708-.685-7.654 1.459-10.554C4.062 2.038 7.677.094 11.742.008c4.064-.079 7.758 1.703 9.882 4.785a12.066 12.066 0 0 1 2.369 7.145c.138 3.733-1.75 7.368-5.052 9.728-2.147 1.535-4.61 2.328-7.03 2.328zm.11-22.314c-.081 0-.162 0-.244.002-3.5.074-6.599 1.725-8.29 4.415-1.856 2.516-2.31 5.893-1.25 9.086 1.06 3.197 3.448 5.636 6.386 6.523 3.025 1.165 6.496.633 9.345-1.402 2.847-2.035 4.473-5.144 4.351-8.318v-.032c0-2.214-.73-4.41-2.055-6.185-1.78-2.58-4.84-4.09-8.243-4.09zM9.406 20.246v-4.578a2.663 2.663 0 0 1-.952.863 2.573 2.573 0 0 1-1.29.344c-1.016 0-1.893-.444-2.63-1.33-.731-.887-1.097-2.102-1.097-3.646 0-.939.148-1.781.444-2.527.301-.746.734-1.309 1.299-1.69A3.26 3.26 0 0 1 7.052 7.1c1.058 0 1.891.487 2.5 1.46v-1.25h1.306v12.935H9.406zm-4.477-8.285c0 1.203.232 2.108.694 2.711.463.6 1.016.9 1.662.9.619 0 1.15-.286 1.597-.855.446-.576.67-1.447.67-2.615 0-1.245-.237-2.18-.71-2.81-.468-.627-1.02-.941-1.654-.941-.63 0-1.164.293-1.605.88-.435.581-.654 1.491-.654 2.73m9.55 4.702h-1.346V3.755h1.452v4.604c.613-.84 1.395-1.258 2.347-1.258.526 0 1.024.117 1.492.351.464.222.864.558 1.161.978.307.416.546.922.718 1.514.172.593.258 1.227.258 1.902 0 1.603-.363 2.841-1.088 3.716-.727.874-1.598 1.312-2.614 1.312-1.011 0-1.804-.46-2.379-1.382v1.17m-.016-4.746c0 1.122.14 1.932.42 2.432.456.815 1.074 1.223 1.854 1.223.635 0 1.183-.3 1.646-.898.462-.604.693-1.503.693-2.695 0-1.22-.224-2.122-.67-2.703-.44-.58-.975-.872-1.605-.872-.634 0-1.182.303-1.645.907-.463.6-.694 1.468-.694 2.607"/></g>
    <text x="116" y="48" fill="#9AA2AF" font-size="11">Jellyseerr · Sonarr · Radarr · qBittorrent</text>
  </g>

  <line x1="374" y1="122" x2="374" y2="212" stroke="#5A6678" stroke-width="1.6" marker-end="url(#an)"/>
  <text x="384" y="172" fill="#7B8696" font-size="10.5">HTTPS</text>
  <line x1="374" y1="282" x2="186" y2="310" stroke="#5A6678" stroke-width="1.6" marker-end="url(#an)"/>
  <line x1="374" y1="282" x2="368" y2="310" stroke="#5A6678" stroke-width="1.6" marker-end="url(#an)"/>
  <line x1="374" y1="282" x2="556" y2="310" stroke="#5A6678" stroke-width="1.6" marker-end="url(#an)"/>
  <line x1="556" y1="404" x2="556" y2="434" stroke="#5A6678" stroke-width="1.6" marker-end="url(#an)"/>
  <line x1="710" y1="358" x2="642" y2="358" stroke="#76B900" stroke-width="1.8" stroke-dasharray="6 4" marker-end="url(#ag)"/>
  <text x="676" y="350" text-anchor="middle" fill="#8DC63F" font-size="10">passthrough</text>
  <path d="M180 404 Q 368 430 556 404" fill="none" stroke="#B9A6FB" stroke-width="2.4" stroke-dasharray="7 4" marker-end="url(#av)"/>
  <rect x="332" y="411" width="72" height="20" rx="5" fill="#171A21" stroke="#A78BFA" stroke-opacity="0.6"/>
  <text x="368" y="425" text-anchor="middle" fill="#C9BCFD" font-size="12" font-weight="600" letter-spacing="0.4">SSO · OIDC</text>
</svg>
